<svg width="145" height="100" viewBox="0 0 145 100" fill="none" xmlns="http://www.w3.org/2000/svg">
<path d="M9.456 43.48C6.896 43.48 4.944 42.76 3.6 41.32C2.256 39.848 1.584 37.752 1.584 35.032V17.368C1.584 14.648 2.256 12.568 3.6 11.128C4.944 9.656 6.896 8.92 9.456 8.92C12.016 8.92 13.968 9.656 15.312 11.128C16.656 12.568 17.328 14.648 17.328 17.368V20.248H12.336V17.032C12.336 14.824 11.424 13.72 9.6 13.72C7.776 13.72 6.864 14.824 6.864 17.032V35.416C6.864 37.592 7.776 38.68 9.6 38.68C11.424 38.68 12.336 37.592 12.336 35.416V28.84H9.696V24.04H17.328V35.032C17.328 37.752 16.656 39.848 15.312 41.32C13.968 42.76 12.016 43.48 9.456 43.48ZM20.718 9.4H28.542C31.262 9.4 33.246 10.04 34.494 11.32C35.742 12.568 36.366 14.504 36.366 17.128V19.192C36.366 22.68 35.214 24.888 32.91 25.816V25.912C34.19 26.296 35.086 27.08 35.598 28.264C36.142 29.448 36.414 31.032 36.414 33.016V38.92C36.414 39.88 36.446 40.664 36.51 41.272C36.574 41.848 36.734 42.424 36.99 43H31.614C31.422 42.456 31.294 41.944 31.23 41.464C31.166 40.984 31.134 40.12 31.134 38.872V32.728C31.134 31.192 30.878 30.12 30.366 29.512C29.886 28.904 29.038 28.6 27.822 28.6H25.998V43H20.718V9.4ZM27.918 23.8C28.974 23.8 29.758 23.528 30.27 22.984C30.814 22.44 31.086 21.528 31.086 20.248V17.656C31.086 16.44 30.862 15.56 30.414 15.016C29.998 14.472 29.326 14.2 28.398 14.2H25.998V23.8H27.918ZM47.7094 43.48C45.1174 43.48 43.1334 42.744 41.7574 41.272C40.3814 39.8 39.6934 37.72 39.6934 35.032V17.368C39.6934 14.68 40.3814 12.6 41.7574 11.128C43.1334 9.656 45.1174 8.92 47.7094 8.92C50.3014 8.92 52.2854 9.656 53.6614 11.128C55.0374 12.6 55.7254 14.68 55.7254 17.368V35.032C55.7254 37.72 55.0374 39.8 53.6614 41.272C52.2854 42.744 50.3014 43.48 47.7094 43.48ZM47.7094 38.68C49.5334 38.68 50.4454 37.576 50.4454 35.368V17.032C50.4454 14.824 49.5334 13.72 47.7094 13.72C45.8854 13.72 44.9734 14.824 44.9734 17.032V35.368C44.9734 37.576 45.8854 38.68 47.7094 38.68ZM66.7361 43.48C64.2081 43.48 62.2721 42.76 60.9281 41.32C59.6161 39.88 58.9601 37.848 58.9601 35.224V17.176C58.9601 14.552 59.6161 12.52 60.9281 11.08C62.2721 9.64 64.2081 8.92 66.7361 8.92C69.2641 8.92 71.1841 9.64 72.4961 11.08C73.8401 12.52 74.5121 14.552 74.5121 17.176V20.728H69.5201V16.84C69.5201 14.76 68.6401 13.72 66.8801 13.72C65.1201 13.72 64.2401 14.76 64.2401 16.84V35.608C64.2401 37.656 65.1201 38.68 66.8801 38.68C68.6401 38.68 69.5201 37.656 69.5201 35.608V30.472H74.5121V35.224C74.5121 37.848 73.8401 39.88 72.4961 41.32C71.1841 42.76 69.2641 43.48 66.7361 43.48ZM77.6711 9.4H92.0711V14.2H82.9511V23.08H90.1991V27.88H82.9511V38.2H92.0711V43H77.6711V9.4ZM95.1086 9.4H102.933C105.653 9.4 107.637 10.04 108.885 11.32C110.133 12.568 110.757 14.504 110.757 17.128V19.192C110.757 22.68 109.605 24.888 107.301 25.816V25.912C108.581 26.296 109.477 27.08 109.989 28.264C110.533 29.448 110.805 31.032 110.805 33.016V38.92C110.805 39.88 110.837 40.664 110.901 41.272C110.965 41.848 111.125 42.424 111.381 43H106.005C105.813 42.456 105.685 41.944 105.621 41.464C105.557 40.984 105.525 40.12 105.525 38.872V32.728C105.525 31.192 105.269 30.12 104.757 29.512C104.277 28.904 103.429 28.6 102.213 28.6H100.389V43H95.1086V9.4ZM102.309 23.8C103.365 23.8 104.149 23.528 104.661 22.984C105.205 22.44 105.477 21.528 105.477 20.248V17.656C105.477 16.44 105.253 15.56 104.805 15.016C104.389 14.472 103.717 14.2 102.789 14.2H100.389V23.8H102.309ZM118.566 28.696L112.182 9.4H117.798L121.398 21.736H121.494L125.094 9.4H130.23L123.846 28.696V43H118.566V28.696Z" fill="#2A3D2E"/>
<path d="M9.456 86.48C6.896 86.48 4.944 85.76 3.6 84.32C2.256 82.848 1.584 80.752 1.584 78.032V60.368C1.584 57.648 2.256 55.568 3.6 54.128C4.944 52.656 6.896 51.92 9.456 51.92C12.016 51.92 13.968 52.656 15.312 54.128C16.656 55.568 17.328 57.648 17.328 60.368V63.248H12.336V60.032C12.336 57.824 11.424 56.72 9.6 56.72C7.776 56.72 6.864 57.824 6.864 60.032V78.416C6.864 80.592 7.776 81.68 9.6 81.68C11.424 81.68 12.336 80.592 12.336 78.416V71.84H9.696V67.04H17.328V78.032C17.328 80.752 16.656 82.848 15.312 84.32C13.968 85.76 12.016 86.48 9.456 86.48ZM28.398 86.48C25.838 86.48 23.886 85.76 22.542 84.32C21.198 82.848 20.526 80.752 20.526 78.032V52.4H25.806V78.416C25.806 79.568 26.03 80.4 26.478 80.912C26.958 81.424 27.63 81.68 28.494 81.68C29.358 81.68 30.014 81.424 30.462 80.912C30.942 80.4 31.182 79.568 31.182 78.416V52.4H36.27V78.032C36.27 80.752 35.598 82.848 34.254 84.32C32.91 85.76 30.958 86.48 28.398 86.48ZM40.0305 52.4H47.8545C50.5745 52.4 52.5585 53.04 53.8065 54.32C55.0545 55.568 55.6785 57.504 55.6785 60.128V62.192C55.6785 65.68 54.5265 67.888 52.2225 68.816V68.912C53.5025 69.296 54.3985 70.08 54.9105 71.264C55.4545 72.448 55.7265 74.032 55.7265 76.016V81.92C55.7265 82.88 55.7585 83.664 55.8225 84.272C55.8865 84.848 56.0465 85.424 56.3025 86H50.9265C50.7345 85.456 50.6065 84.944 50.5425 84.464C50.4785 83.984 50.4465 83.12 50.4465 81.872V75.728C50.4465 74.192 50.1905 73.12 49.6785 72.512C49.1985 71.904 48.3505 71.6 47.1345 71.6H45.3105V86H40.0305V52.4ZM47.2305 66.8C48.2865 66.8 49.0705 66.528 49.5825 65.984C50.1265 65.44 50.3985 64.528 50.3985 63.248V60.656C50.3985 59.44 50.1745 58.56 49.7265 58.016C49.3105 57.472 48.6385 57.2 47.7105 57.2H45.3105V66.8H47.2305ZM67.0699 86.48C64.5099 86.48 62.5579 85.76 61.2139 84.32C59.8699 82.848 59.1979 80.752 59.1979 78.032V52.4H64.4779V78.416C64.4779 79.568 64.7019 80.4 65.1499 80.912C65.6299 81.424 66.3019 81.68 67.1659 81.68C68.0299 81.68 68.6859 81.424 69.1339 80.912C69.6139 80.4 69.8539 79.568 69.8539 78.416V52.4H74.9419V78.032C74.9419 80.752 74.2699 82.848 72.9259 84.32C71.5819 85.76 69.6299 86.48 67.0699 86.48Z" fill="#2A3D2E"/>
<path d="M117.01 89C114.234 89 111.872 88.0287 109.924 86.086C107.976 84.1433 107.001 81.7847 107 79.01C106.999 76.2353 107.97 73.8733 109.914 71.924C111.858 69.9747 114.217 69 116.992 69C119.767 69 122.129 69.9713 124.078 71.914C126.027 73.8567 127.001 76.216 127 78.992C126.999 81.768 126.027 84.13 124.086 86.078C122.145 88.026 119.786 89 117.01 89ZM117 87C119.2 87 121.083 86.2167 122.65 84.65C124.217 83.0833 125 81.2 125 79C125 76.8 124.217 74.9167 122.65 73.35C121.083 71.7833 119.2 71 117 71C114.8 71 112.917 71.7833 111.35 73.35C109.783 74.9167 109 76.8 109 79C109 81.2 109.783 83.0833 111.35 84.65C112.917 86.2167 114.8 87 117 87ZM91 85V67.208L95.916 56.232H92.924V53H107.078V56.232H104.084L109.078 67.524C108.803 67.6773 108.53 67.8607 108.258 68.074C107.986 68.2873 107.715 68.524 107.446 68.784L101.938 56.232H98.062L93 67.684V83H103.578C103.667 83.3667 103.783 83.7187 103.924 84.056C104.067 84.3933 104.223 84.708 104.392 85H91ZM117 66.23C116.139 65.9993 115.423 65.5353 114.854 64.838C114.285 64.1407 114 63.3227 114 62.384C114 61.4453 114.285 60.6273 114.854 59.93C115.423 59.2327 116.139 58.7693 117 58.54V66.23ZM117 66.23C117.231 65.3687 117.695 64.6533 118.392 64.084C119.089 63.5147 119.907 63.23 120.846 63.23C121.785 63.23 122.603 63.5147 123.3 64.084C123.997 64.6533 124.461 65.3687 124.692 66.23H117Z" fill="#2A3D2E"/>
</svg>
